HIERARCHY
ROOT root
{
	OFFSET 0.000000 0.000000 0.000000
	CHANNELS 6 Xposition Yposition Zposition Zrotation Yrotation Xrotation
	JOINT lhip
	{
		OFFSET 0.058581 -0.082280 -0.017664
		CHANNELS 3 Zrotation Yrotation Xrotation
		JOINT lknee
		{
			OFFSET 0.043451 -0.386469 0.008037
			CHANNELS 3 Zrotation Yrotation Xrotation
			JOINT lankle
			{
				OFFSET -0.014790 -0.426874 -0.037428
				CHANNELS 3 Zrotation Yrotation Xrotation
				JOINT ltoe
				{
					OFFSET 0.041054 -0.060286 0.122042
					CHANNELS 3 Zrotation Yrotation Xrotation
					End Site
					{
						OFFSET 0.000000 0.000000 0.000000
					}
				}
			}
		}
	}
	JOINT rhip
	{
		OFFSET -0.060310 -0.090513 -0.013543
		CHANNELS 3 Zrotation Yrotation Xrotation
		JOINT rknee
		{
			OFFSET -0.043257 -0.383688 -0.004843
			CHANNELS 3 Zrotation Yrotation Xrotation
			JOINT rankle
			{
				OFFSET 0.019056 -0.420046 -0.034562
				CHANNELS 3 Zrotation Yrotation Xrotation
				JOINT rtoe
				{
					OFFSET -0.034840 -0.062106 0.130323
					CHANNELS 3 Zrotation Yrotation Xrotation
					End Site
					{
						OFFSET 0.000000 0.000000 0.000000
					}
				}
			}
		}
	}
	JOINT lowerback
	{
		OFFSET 0.004439 0.124404 -0.038385
		CHANNELS 3 Zrotation Yrotation Xrotation
		JOINT upperback
		{
			OFFSET 0.004488 0.137956 0.026820
			CHANNELS 3 Zrotation Yrotation Xrotation
			JOINT chest
			{
				OFFSET -0.002265 0.056032 0.002855
				CHANNELS 3 Zrotation Yrotation Xrotation
				JOINT lowerneck
				{
					OFFSET -0.013390 0.211636 -0.033468
					CHANNELS 3 Zrotation Yrotation Xrotation
					JOINT upperneck
					{
						OFFSET 0.010113 0.088937 0.050410
						CHANNELS 3 Zrotation Yrotation Xrotation
						End Site
						{
							OFFSET 0.000000 0.000000 0.000000
						}
					}
				}
				JOINT lclavicle
				{
					OFFSET 0.071702 0.114000 -0.018898
					CHANNELS 3 Zrotation Yrotation Xrotation
					JOINT lshoulder
					{
						OFFSET 0.122921 0.045205 -0.019046
						CHANNELS 3 Zrotation Yrotation Xrotation
						JOINT lelbow
						{
							OFFSET 0.255332 -0.015649 -0.022946
							CHANNELS 3 Zrotation Yrotation Xrotation
							JOINT lwrist
							{
								OFFSET 0.265709 0.012698 -0.007375
								CHANNELS 3 Zrotation Yrotation Xrotation
								End Site
								{
									OFFSET 0.000000 0.000000 0.000000
								}
							}
						}
					}
				}
				JOINT rclavicle
				{
					OFFSET -0.082954 0.112472 -0.023707
					CHANNELS 3 Zrotation Yrotation Xrotation
					JOINT rshoulder
					{
						OFFSET -0.113228 0.046853 -0.008472
						CHANNELS 3 Zrotation Yrotation Xrotation
						JOINT relbow
						{
							OFFSET -0.260127 -0.014369 -0.031269
							CHANNELS 3 Zrotation Yrotation Xrotation
							JOINT rwrist
							{
								OFFSET -0.269108 0.006794 -0.006027
								CHANNELS 3 Zrotation Yrotation Xrotation
								End Site
								{
									OFFSET 0.000000 0.000000 0.000000
								}
							}
						}
					}
				}
			}
		}
	}
}
MOTION
Frames: 5
Frame Time: 0.033333
-2.234032 0.687285 0.981119 86.315884 -1.032068 84.937079 3.737741 0.768974 -18.513263 2.783428 14.964323 54.215178 9.176535 15.376595 -11.214552 0.000000 -0.000000 0.000000 2.316888 -1.006567 4.520798 2.320921 4.194780 7.819071 -1.484151 -2.287833 -15.272457 0.000000 -0.000000 0.000000 -0.469926 3.831976 10.127362 2.729105 -3.035925 0.451879 0.398497 -0.906932 1.753038 1.237705 -8.361792 -3.023256 2.226574 -6.052742 -5.541031 -22.964627 6.971832 6.317631 -57.875127 4.064159 13.019279 -7.706687 -40.681688 29.210038 -1.831094 -9.084328 -12.058499 21.237575 -1.476228 2.465527 57.074328 0.965282 12.790020 -7.624414 43.611755 -1.717664 -0.624812 9.686717 -23.485260 
-2.199012 0.686768 0.980829 84.933785 -0.799158 84.803541 4.558064 0.222108 -20.775189 0.702851 16.438550 45.466070 0.679583 15.256850 -10.555554 0.000000 -0.000000 0.000000 2.197991 -1.417365 8.275165 2.276009 4.334335 5.731456 -0.944118 -1.279233 -16.451142 0.000000 -0.000000 0.000000 -0.232057 5.535072 10.510479 2.771966 -2.673906 1.090053 0.715917 -0.484977 1.506047 1.425408 -7.219267 -3.390172 2.199399 -7.679425 -5.617202 -23.059593 8.005679 5.951870 -57.795787 6.651525 13.033341 -7.545271 -40.155336 29.005901 -4.587249 -10.019058 -11.751317 21.210603 -1.466166 1.884358 55.478036 3.694392 12.610443 -5.439534 45.731073 0.733301 -0.363635 10.003863 -24.885943 
-2.161863 0.687563 0.977184 83.770092 -0.855923 84.886283 4.467909 0.609483 -21.796425 -1.029286 16.082416 33.290339 0.839182 14.812405 -10.022675 0.000000 -0.000000 0.000000 1.206330 -3.002692 11.329863 2.385874 6.140384 4.785978 -0.543769 0.203066 -17.290215 0.000000 -0.000000 0.000000 -0.166242 6.607875 9.700315 2.555287 -2.648530 1.723912 0.652321 0.453757 2.197341 1.856943 -6.438686 -4.304785 2.250220 -8.069314 -5.417191 -22.705418 8.992253 5.332224 -57.462336 8.812251 13.479988 -7.461183 -39.231030 29.539788 2.050371 -8.787690 -11.975484 21.338410 -0.716855 1.581327 54.449426 6.461506 12.803047 -4.428360 46.744653 0.740477 -4.637367 10.560207 -24.777977 
-2.117253 0.688390 0.972883 82.608592 -0.213554 85.327244 4.422231 1.189908 -22.270690 -2.321743 13.971730 16.621568 0.300032 13.269860 -8.162022 0.000000 -0.000000 0.000000 0.823122 -3.334949 14.710035 2.662735 7.613490 3.641397 -0.110324 0.234364 -17.820497 0.000000 -0.000000 0.000000 0.530055 7.081101 9.827279 2.339242 -2.261037 1.939185 0.901367 0.935751 1.672678 2.310777 -6.496062 -4.480445 1.067074 -9.079985 -4.719909 -23.068081 10.669967 5.482449 -56.908785 11.685258 12.297728 -6.729303 -38.964944 28.577883 -2.487654 -8.179825 -10.158760 21.040952 0.557132 1.955972 53.669397 9.165693 12.693098 -5.159373 48.115322 -0.533389 -3.359917 11.141259 -24.793272 
-2.087971 0.689648 0.968892 81.987051 0.325629 85.492879 4.346901 2.089753 -22.438648 -3.039433 10.311020 8.604193 -0.004575 11.615746 -7.899278 0.000000 -0.000000 0.000000 0.405443 -4.216251 16.452478 2.781766 8.652516 4.022235 0.099169 0.718789 -18.483897 0.000000 -0.000000 0.000000 1.026452 7.276858 9.521557 2.383240 -2.026501 1.977603 0.863555 1.516436 1.791297 2.699620 -5.522527 -5.462113 0.587130 -9.696930 -3.072266 -22.255622 11.669230 5.768208 -57.147336 12.422311 11.773054 -7.374570 -38.144807 30.299959 -3.716258 -8.398710 -10.409925 21.054704 0.640294 1.919151 53.160881 10.717452 12.089587 -4.737719 48.628613 -0.446579 -2.327405 11.257916 -24.280660 
